<svg viewBox="0 0 800 400" xmlns="http://www.w3.org/2000/svg">
  <!-- Dark Background with Subtle Gradient -->
  <defs>
    <linearGradient id="darkBg" x1="0%" y1="0%" x2="100%" y2="100%">
      <stop offset="0%" style="stop-color:#080810;stop-opacity:1" />
      <stop offset="100%" style="stop-color:#121220;stop-opacity:1" />
    </linearGradient>
    <linearGradient id="orangeGradient" x1="0%" y1="0%" x2="100%" y2="100%">
      <stop offset="0%" style="stop-color:#FF9500;stop-opacity:1" />
      <stop offset="100%" style="stop-color:#FF5E00;stop-opacity:1" />
    </linearGradient>
    <linearGradient id="purpleAccent" x1="0%" y1="0%" x2="100%" y2="100%">
      <stop offset="0%" style="stop-color:#6E00FF;stop-opacity:1" />
      <stop offset="100%" style="stop-color:#9F00FF;stop-opacity:1" />
    </linearGradient>
    <filter id="neonGlow" x="-20%" y="-20%" width="140%" height="140%">
      <feGaussianBlur stdDeviation="3" result="blur" />
      <feComposite in="SourceGraphic" in2="blur" operator="over" />
    </filter>
  </defs>
  
  <rect width="800" height="400" fill="url(#darkBg)" rx="8" ry="8"/>
  
  <!-- Logo Text - ANSLIX with Orange S -->
  <g>
    <!-- AN -->
    <g fill="#FFFFFF">
      <path d="M140,310 L110,150 L90,150 L60,310 L85,310 L90,275 L110,275 L115,310 L140,310 Z M95,250 L100,195 L105,250 L95,250 Z"/>
      <path d="M150,310 L150,150 L175,150 L210,240 L210,150 L235,150 L235,310 L210,310 L175,220 L175,310 L150,310 Z"/>
    </g>
    
    <!-- S in Orange -->
    <path d="M285,310 C245,310 230,290 230,270 C230,240 250,230 285,220 C305,213 315,208 315,190 C315,175 300,170 285,170 C270,170 255,175 255,195 L230,195 C230,160 255,145 285,145 C315,145 340,160 340,190 C340,220 320,230 285,240 C265,247 255,252 255,270 C255,285 270,290 285,290 C300,290 315,280 315,260 L340,260 C340,290 315,310 285,310 Z" fill="url(#orangeGradient)"/>
    
    <!-- LIX -->
    <g fill="#FFFFFF">
      <path d="M360,310 L360,150 L385,150 L385,285 L445,285 L445,310 L360,310 Z"/>
      <path d="M465,310 L465,150 L490,150 L490,310 L465,310 Z"/>
      <path d="M510,310 L510,150 L535,150 L570,230 L605,150 L630,150 L580,230 L635,310 L610,310 L570,250 L530,310 L510,310 Z"/>
    </g>
  </g>
  
  <!-- Robot Character in N -->
  <g transform="translate(190, 165)">
    <circle cx="15" cy="15" r="13" fill="#080810" stroke="#FFFFFF" stroke-width="1"/>
    <circle cx="10" cy="12" r="3" fill="#FF9500"/>
    <circle cx="20" cy="12" r="3" fill="#FF9500"/>
    <path d="M10,20 Q15,23 20,20" stroke="#FFFFFF" stroke-width="1.5" fill="none"/>
    <line x1="15" y1="2" x2="15" y2="-3" stroke="#FFFFFF" stroke-width="1"/>
    <circle cx="15" cy="-3" r="1.5" fill="#FF9500"/>
  </g>
  
  <!-- Tech Elements -->
  <g filter="url(#neonGlow)">
    <!-- Digital Circuit Pattern -->
    <path d="M340,200 L440,200 L490,150 L550,150" stroke="url(#purpleAccent)" stroke-width="1.5" fill="none" opacity="0.7"/>
    <path d="M340,220 L400,220 L440,260 L550,260" stroke="url(#purpleAccent)" stroke-width="1.5" fill="none" opacity="0.7"/>
    <path d="M440,200 L440,150" stroke="url(#purpleAccent)" stroke-width="1.5" fill="none" opacity="0.7"/>
    <path d="M440,220 L440,260" stroke="url(#purpleAccent)" stroke-width="1.5" fill="none" opacity="0.7"/>
    <path d="M340,180 L390,180 L420,150 L550,150" stroke="url(#purpleAccent)" stroke-width="1.5" fill="none" opacity="0.7"/>
    <path d="M340,240 L380,240 L410,270 L550,270" stroke="url(#purpleAccent)" stroke-width="1.5" fill="none" opacity="0.7"/>
    
    <!-- Circuit Nodes -->
    <circle cx="440" cy="200" r="3" fill="#9F00FF"/>
    <circle cx="440" cy="220" r="3" fill="#9F00FF"/>
    <circle cx="490" cy="150" r="3" fill="#9F00FF"/>
    <circle cx="440" cy="150" r="3" fill="#9F00FF"/>
    <circle cx="440" cy="260" r="3" fill="#9F00FF"/>
    <circle cx="420" cy="150" r="3" fill="#9F00FF"/>
    <circle cx="410" cy="270" r="3" fill="#9F00FF"/>
    <circle cx="550" cy="150" r="3" fill="#9F00FF"/>
    <circle cx="550" cy="260" r="3" fill="#9F00FF"/>
    <circle cx="550" cy="270" r="3" fill="#9F00FF"/>
  </g>
  
  <!-- Digital Particles -->
  <g fill="#9F00FF" opacity="0.4">
    <circle cx="370" cy="160" r="1"/>
    <circle cx="410" cy="230" r="1.5"/>
    <circle cx="450" cy="175" r="1"/>
    <circle cx="480" cy="220" r="1.5"/>
    <circle cx="520" cy="190" r="1"/>
    <circle cx="500" cy="170" r="1"/>
    <circle cx="460" cy="240" r="1.5"/>
    <circle cx="530" cy="210" r="1"/>
  </g>
  
  <!-- Subtle Orange Accent Line -->
  <path d="M60,320 L635,320" stroke="url(#orangeGradient)" stroke-width="2" fill="none" opacity="0.6"/>
</svg>
